<svg id="Layer_1" data-name="Layer 1" xmlns="http://www.w3.org/2000/svg" viewBox="0 0 572.34 165.46"><defs><style>.cls-1{fill:#fff;}.cls-2{fill:#b41419;}</style></defs><path class="cls-1" d="M239.28,62.88h-3.47a23.94,23.94,0,0,0-4.05-7.82q-3.07-4.16-5.9-4.58c-1-.12-2.09-.21-3.4-.27s-2.8-.1-4.46-.1H207V76.48h7.56a15.92,15.92,0,0,0,5.33-.71,8.17,8.17,0,0,0,3.24-2.2,9.49,9.49,0,0,0,1.7-3.17,18.8,18.8,0,0,0,1-4.6h3.47V91.61h-3.47a20.29,20.29,0,0,0-.95-4.63,11.81,11.81,0,0,0-1.74-3.74,7,7,0,0,0-3.5-2.34,17.88,17.88,0,0,0-5.07-.62H207v22.58a6,6,0,0,0,.6,2.73,4.43,4.43,0,0,0,2.13,1.94,17.11,17.11,0,0,0,3,.78,24,24,0,0,0,3.52.51v3.28H187.79v-3.28c.92-.06,2.16-.16,3.7-.3a11.49,11.49,0,0,0,3-.53,4,4,0,0,0,2-1.78,6,6,0,0,0,.62-2.85V56a6.79,6.79,0,0,0-.51-2.71,4,4,0,0,0-2.12-1.92,15.94,15.94,0,0,0-3.36-1.06,26.49,26.49,0,0,0-3.35-.56V46.46h51.49Z"/><path class="cls-1" d="M265.27,112.1H243v-3l2.27-.21a10,10,0,0,0,2-.35,3.4,3.4,0,0,0,1.94-1.45,5.1,5.1,0,0,0,.65-2.71V51.46a6.94,6.94,0,0,0-.72-3.12,6,6,0,0,0-1.87-2.29,9.32,9.32,0,0,0-3.05-1,27.29,27.29,0,0,0-3.57-.56v-3l17.17-1,.64.7v62.59a5.19,5.19,0,0,0,.61,2.66A3.81,3.81,0,0,0,261,108a11.2,11.2,0,0,0,2,.7,15.07,15.07,0,0,0,2.24.32Z"/><path class="cls-1" d="M267.54,127a5.51,5.51,0,0,1,1.27-3.77,4.05,4.05,0,0,1,3.17-1.46,5.48,5.48,0,0,1,2.55.55,7.27,7.27,0,0,1,1.89,1.42,11.75,11.75,0,0,1,1.48,1.89c.53.79.94,1.45,1.25,2q2.31-1.25,5.53-6.51a53,53,0,0,0,4.65-9.23q-4.4-11-8-19.61t-7.44-17.9a6.66,6.66,0,0,0-3-3.3,12.2,12.2,0,0,0-4.16-1.51V66.49h20.83v3.24a14.55,14.55,0,0,0-3.34.58c-1.29.35-1.94.76-1.94,1.22a3.56,3.56,0,0,0,.21.93c.14.43.3.87.49,1.34q1.74,4.58,5.35,13.19t5.58,13.8q2.08-5,4.33-10.24t5-12.5q.33-.89.93-2.43a7.58,7.58,0,0,0,.6-2.66c0-.8-.7-1.54-2.1-2.24a12.74,12.74,0,0,0-4-1.27v-3H315.7v2.87A11.43,11.43,0,0,0,312,71a8.33,8.33,0,0,0-3.37,3.87q-5.51,12.77-9.79,23.27t-6.5,15.45a87.33,87.33,0,0,1-5.2,10.11,30.51,30.51,0,0,1-4.47,5.71,13,13,0,0,1-3.86,2.61,9.76,9.76,0,0,1-3.58.67,8.61,8.61,0,0,1-5.67-1.71A5,5,0,0,1,267.54,127Z"/><path class="cls-1" d="M385.6,69.45a9.65,9.65,0,0,0-4.19,1.62,8.13,8.13,0,0,0-3.26,4.3q-2.31,6.81-4.37,12.89t-4.61,13.67q-.82,2.4-1.68,5.18c-.58,1.85-1.09,3.62-1.55,5.32H362l-12.3-33.62-12.33,33.62h-3.81q-3.46-10.28-6.77-20.38t-5.86-17.6A6.27,6.27,0,0,0,318.1,71a10.32,10.32,0,0,0-4-1.48V66.49h20.34v3.24a14.92,14.92,0,0,0-3.31.51c-1.18.31-1.78.82-1.78,1.52a4,4,0,0,0,.17.79c.1.4.23.83.39,1.3q1.47,4.84,3.35,10.82t4.83,15.54L349.7,67.42h4.49l11.88,32.33q2-6.18,4-12t3.45-10.87c.22-.8.42-1.53.63-2.2a6.77,6.77,0,0,0,.3-2,1.93,1.93,0,0,0-.74-1.48,6.06,6.06,0,0,0-1.81-1.07,9.56,9.56,0,0,0-2-.55,10.06,10.06,0,0,0-1.6-.19v-3H385.6Z"/><path class="cls-1" d="M437.13,112.1H414.69v-3l2.36-.19a8.47,8.47,0,0,0,2.13-.37A3.32,3.32,0,0,0,421.1,107a5.2,5.2,0,0,0,.63-2.71V80.88q0-4.86-2.3-7.5a7.16,7.16,0,0,0-5.59-2.63,12.71,12.71,0,0,0-4.47.76,16.79,16.79,0,0,0-3.69,1.87,11,11,0,0,0-2.41,2.32c-.56.77-1,1.42-1.3,1.94v26.23a4.85,4.85,0,0,0,.63,2.59,4,4,0,0,0,1.92,1.57,10.36,10.36,0,0,0,2.1.7,18,18,0,0,0,2.38.32v3H386.66v-3l2.21-.21a9.86,9.86,0,0,0,1.93-.35,3.36,3.36,0,0,0,1.92-1.45,5.1,5.1,0,0,0,.65-2.71V51.18a7.48,7.48,0,0,0-.72-3.14,5.61,5.61,0,0,0-1.87-2.37,6.74,6.74,0,0,0-2.94-.85c-1.4-.17-2.54-.29-3.4-.35v-3l16.88-1,.65.7V73h.19c1-1,1.94-1.92,2.78-2.7a22.06,22.06,0,0,1,3.29-2.48A17.59,17.59,0,0,1,412.37,66a18.23,18.23,0,0,1,5.36-.74q6.11,0,9.4,3.86t3.29,11.13V104a5.27,5.27,0,0,0,.58,2.62,3.84,3.84,0,0,0,1.94,1.54,15.28,15.28,0,0,0,1.93.63,13.68,13.68,0,0,0,2.26.3Z"/><path class="cls-1" d="M483.16,101.37a23.33,23.33,0,0,1-7.68,8.7,19.33,19.33,0,0,1-11.06,3.24,22.39,22.39,0,0,1-9.64-2,18.91,18.91,0,0,1-6.83-5.27,22.56,22.56,0,0,1-4-7.77,32.78,32.78,0,0,1-1.32-9.39,27.41,27.41,0,0,1,1.42-8.72,24.62,24.62,0,0,1,4.14-7.71,20,20,0,0,1,6.54-5.29,18.91,18.91,0,0,1,8.77-2,21.11,21.11,0,0,1,8.56,1.57,15.26,15.26,0,0,1,5.78,4.3A17.24,17.24,0,0,1,481,77.18a26.86,26.86,0,0,1,1,7.63v3H451.84A35.92,35.92,0,0,0,452.7,96a19.71,19.71,0,0,0,2.7,6.45,12.94,12.94,0,0,0,4.72,4.24,14.51,14.51,0,0,0,6.94,1.55,12.77,12.77,0,0,0,7.1-1.93q3-1.92,5.76-7ZM472.94,84a38.23,38.23,0,0,0-.44-5.54,17.09,17.09,0,0,0-1.42-4.93,9.26,9.26,0,0,0-2.91-3.46,7.93,7.93,0,0,0-4.76-1.34,9.94,9.94,0,0,0-8.08,4q-3.21,4-3.49,11.23Z"/><path class="cls-1" d="M529,101.37a23.51,23.51,0,0,1-7.68,8.7,19.35,19.35,0,0,1-11.06,3.24,22.39,22.39,0,0,1-9.64-2,18.83,18.83,0,0,1-6.83-5.27,22.39,22.39,0,0,1-4-7.77,32.78,32.78,0,0,1-1.32-9.39,27.68,27.68,0,0,1,1.41-8.72A24.62,24.62,0,0,1,494,72.5a20,20,0,0,1,6.55-5.29,18.88,18.88,0,0,1,8.77-2,21,21,0,0,1,8.55,1.57,15.22,15.22,0,0,1,5.79,4.3,17.41,17.41,0,0,1,3.17,6.11,26.86,26.86,0,0,1,1,7.63v3H497.64a35.94,35.94,0,0,0,.85,8.16,19.72,19.72,0,0,0,2.71,6.45,12.86,12.86,0,0,0,4.72,4.24,14.48,14.48,0,0,0,6.94,1.55,12.77,12.77,0,0,0,7.1-1.93q3-1.92,5.76-7ZM518.73,84a36.87,36.87,0,0,0-.44-5.54,16.79,16.79,0,0,0-1.41-4.93A9.36,9.36,0,0,0,514,70.05a8,8,0,0,0-4.77-1.34,9.91,9.91,0,0,0-8.07,4q-3.21,4-3.49,11.23Z"/><path class="cls-1" d="M555.6,112.1H533.35v-3l2.27-.21a10,10,0,0,0,2-.35,3.4,3.4,0,0,0,1.94-1.45,5.1,5.1,0,0,0,.65-2.71V51.46a6.94,6.94,0,0,0-.72-3.12,6,6,0,0,0-1.87-2.29,9.4,9.4,0,0,0-3.06-1,27.19,27.19,0,0,0-3.56-.56v-3l17.16-1,.65.7v62.59a5.29,5.29,0,0,0,.6,2.66,3.84,3.84,0,0,0,2,1.59,10.68,10.68,0,0,0,2,.7,15.07,15.07,0,0,0,2.24.32Z"/><path class="cls-1" d="M318.75,137.29l7.13-15.64a.57.57,0,0,1,.4-.25h.23a.57.57,0,0,1,.4.25L334,137.29a.41.41,0,0,1-.39.61h-1.47a.54.54,0,0,1-.53-.35l-1.44-3.19h-7.6c-.46,1.07-.95,2.12-1.42,3.19a.58.58,0,0,1-.53.35h-1.46A.42.42,0,0,1,318.75,137.29Zm10.53-4.92L326.42,126h-.12l-2.83,6.37Z"/><path class="cls-1" d="M352.58,122.07a.44.44,0,0,1,.42-.44h5.35a8.14,8.14,0,1,1,0,16.27H353a.44.44,0,0,1-.42-.45ZM358,135.69a5.93,5.93,0,0,0,0-11.85H355v11.85Z"/><path class="cls-1" d="M383.84,122.24a.41.41,0,0,1,.39-.61h1.65a.46.46,0,0,1,.4.26l5.11,11.5h.14l5.11-11.5a.43.43,0,0,1,.39-.26h1.65a.41.41,0,0,1,.4.61L392,137.87a.45.45,0,0,1-.4.26h-.23a.49.49,0,0,1-.4-.26Z"/><path class="cls-1" d="M417.69,122.07a.46.46,0,0,1,.44-.44h1.54a.46.46,0,0,1,.44.44v15.38a.46.46,0,0,1-.44.45h-1.54a.46.46,0,0,1-.44-.45Z"/><path class="cls-1" d="M439.84,135.55c.21-.3.39-.65.6-1a.52.52,0,0,1,.79-.19A6.81,6.81,0,0,0,445,136c1.6,0,2.63-1,2.63-2.16,0-1.39-1.21-2.27-3.51-3.23s-4.23-2.23-4.23-4.92c0-1.81,1.39-4.3,5.09-4.3a7.86,7.86,0,0,1,4.29,1.37.54.54,0,0,1,.14.79l-.58.88a.55.55,0,0,1-.81.24,7,7,0,0,0-3.14-1.17c-1.95,0-2.62,1.23-2.62,2.09,0,1.33,1,2.14,3,2.93,2.69,1.09,5,2.37,5,5.21,0,2.41-2.16,4.39-5.18,4.39a7.5,7.5,0,0,1-5-1.84A.49.49,0,0,1,439.84,135.55Z"/><path class="cls-1" d="M476.78,121.4a8.37,8.37,0,1,1-8.34,8.39A8.35,8.35,0,0,1,476.78,121.4Zm0,14.4a6,6,0,0,0,6-6,6,6,0,1,0-12.05,0A6,6,0,0,0,476.78,135.8Z"/><path class="cls-1" d="M504.74,122.07a.44.44,0,0,1,.44-.44h6.32a5,5,0,0,1,5.06,5,5.14,5.14,0,0,1-3.44,4.72l3.19,5.9a.45.45,0,0,1-.4.68H514.1a.43.43,0,0,1-.37-.21l-3.09-6.16h-3.51v5.92a.46.46,0,0,1-.44.45h-1.51a.44.44,0,0,1-.44-.45Zm6.57,7.46a2.89,2.89,0,0,0,2.84-2.88,2.85,2.85,0,0,0-2.84-2.76h-4.13v5.64Z"/><path class="cls-1" d="M539.64,130.07l-5.44-7.76a.43.43,0,0,1,.37-.68h1.72a.46.46,0,0,1,.37.21l4.21,5.93,4.21-5.93a.49.49,0,0,1,.37-.21h1.74a.43.43,0,0,1,.37.68L542.05,130v7.41a.45.45,0,0,1-.44.45h-1.53a.44.44,0,0,1-.44-.45Z"/><path class="cls-2" d="M116.54,148.42a55.65,55.65,0,0,1-24,10.08,6,6,0,0,1-3.38-.64C65.55,145.93,49.92,116.66,53,89.25,59.63,124.74,80.55,144.24,116.54,148.42Z"/><path class="cls-2" d="M46.48,20.62c6.06-4.76,12.78-7.39,19.81-9.52,3.89-1.18,7.09-.54,10.57,1.64C99.41,26.88,112.69,53,110.08,79.53,103.1,44,82.27,24.48,46.48,20.62Z"/><path class="cls-1" d="M145.38,49.92a47.66,47.66,0,0,1,10.27,24c.17,1.4-.76,3.07-1.54,4.41a70.57,70.57,0,0,1-67.91,34.5c16-2.15,29.9-8.54,41-20.35S144.11,66.33,145.38,49.92Z"/><path class="cls-1" d="M17.59,119.79a55.58,55.58,0,0,1-10.21-24A6.37,6.37,0,0,1,8.06,92,71,71,0,0,1,72.6,55.62a27.64,27.64,0,0,1,3.17.48C40.83,62.82,21.55,83.79,17.59,119.79Z"/><path class="cls-2" d="M78.37,160.14c-6.24-1.69-12.49-3.34-18.71-5.14-.79-.23-1.45-1.14-2-1.85-16.57-20.66-18.41-54.88-4.17-77.31A19.36,19.36,0,0,1,55,74.06c-10.78,34-3,62,23.58,84.57Z"/><path class="cls-2" d="M109.3,92.8c4.18-15.25,5.14-30.39.48-45.63S96.24,19.72,83.66,10l.61-1.29c6.35,1.73,12.72,3.41,19,5.24.79.23,1.44,1.15,2,1.86,16.1,19.83,18.38,53.45,5.13,75.52A16.52,16.52,0,0,1,109.3,92.8Z"/><path class="cls-1" d="M90.56,56.89c-33.16-9.46-61.1-1.81-83.39,25-1.89-7.56,2.61-19.71,9.1-23.67C40.16,43.62,64.52,43,89.26,56A13.91,13.91,0,0,1,90.56,56.89Z"/><path class="cls-1" d="M157.33,87.35c-1.65,6.15-3.27,12.31-5,18.44a4.63,4.63,0,0,1-1.68,2.16c-22.36,17.23-55.13,19-78.85,3.33,15.2,4.89,30.54,6.33,46,1.8a71.62,71.62,0,0,0,38-26.4Z"/><path class="cls-1" d="M105.75,102.36c23-19.9,28.5-43.76,15.91-72.15a49.2,49.2,0,0,1,16.17,10.51,4.63,4.63,0,0,1,.91,2.54c3.77,23.31-11.07,50.22-32.66,59.27C106,102.56,105.86,102.42,105.75,102.36Z"/><path class="cls-2" d="M62.87,107.77c20.33,23.8,44.17,29.34,72.81,17-2.72,6.42-5.73,12.36-10.91,15.88-3,2-8,1.67-12.09,1.36-21.8-1.7-38.14-12.13-48.66-31.43A28.54,28.54,0,0,1,62.87,107.77Z"/><path class="cls-1" d="M40.54,139.27c-4.88-3.44-9.81-6.82-14.61-10.38a5.16,5.16,0,0,1-1.62-3C20,103.55,35.44,75.1,56.36,66.71c.09,0,.24.08.7.24-10.8,8.57-18,19.28-21,32.69C33,113.2,35.17,126,41.44,138.23Z"/><path class="cls-2" d="M99.68,60.68C82.58,38.17,53.3,31.17,27.17,44.45a49,49,0,0,1,11-16.55,4.09,4.09,0,0,1,2.22-.7C64.36,23.93,90,38,99.75,59.93,99.84,60.12,99.71,60.42,99.68,60.68Z"/></svg>