<svg id="Layer_1" data-name="Layer 1" xmlns="http://www.w3.org/2000/svg" viewBox="0 0 555.6 165.86"><defs><style>.cls-1{fill:#fff;}.cls-2{fill:#969695;}</style></defs><path class="cls-1" d="M236.43,61.2H233a23.84,23.84,0,0,0-4.05-7.82q-3.07-4.16-5.9-4.58c-.95-.12-2.09-.21-3.4-.28s-2.8-.09-4.46-.09h-11V74.8h7.56a15.59,15.59,0,0,0,5.33-.72,8.27,8.27,0,0,0,3.25-2.2A9.33,9.33,0,0,0,222,68.72a19.36,19.36,0,0,0,1-4.61h3.47V89.93H223A20.84,20.84,0,0,0,222,85.3a11.77,11.77,0,0,0-1.74-3.75,7,7,0,0,0-3.5-2.33,17.93,17.93,0,0,0-5.08-.63h-7.56v22.59a6,6,0,0,0,.6,2.72,4.38,4.38,0,0,0,2.13,1.94,15.91,15.91,0,0,0,3,.79,25.42,25.42,0,0,0,3.51.51v3.28H184.94v-3.28c.93-.07,2.16-.17,3.7-.31a10.6,10.6,0,0,0,3-.53,4,4,0,0,0,2-1.78,5.93,5.93,0,0,0,.63-2.84V54.31a6.79,6.79,0,0,0-.51-2.71,3.92,3.92,0,0,0-2.13-1.92,15.19,15.19,0,0,0-3.36-1.06,24.78,24.78,0,0,0-3.35-.56V44.78h51.49Z"/><path class="cls-1" d="M262.43,110.42H240.18v-3l2.26-.21a10.61,10.61,0,0,0,2-.35,3.42,3.42,0,0,0,1.94-1.46,5,5,0,0,0,.65-2.71V49.78a7,7,0,0,0-.72-3.13,6,6,0,0,0-1.87-2.29,9.47,9.47,0,0,0-3.05-1,27.12,27.12,0,0,0-3.56-.55v-3l17.16-1,.65.69v62.59a5.26,5.26,0,0,0,.6,2.66,3.82,3.82,0,0,0,1.94,1.6,10.41,10.41,0,0,0,2,.69,15.14,15.14,0,0,0,2.25.33Z"/><path class="cls-1" d="M264.69,125.32a5.5,5.5,0,0,1,1.28-3.77,4,4,0,0,1,3.16-1.46,5.45,5.45,0,0,1,2.55.55,7.11,7.11,0,0,1,1.89,1.42,11.51,11.51,0,0,1,1.48,1.88c.53.8.94,1.46,1.25,2q2.31-1.24,5.53-6.51a53.39,53.39,0,0,0,4.65-9.23q-4.39-11-8-19.61t-7.44-17.9a6.7,6.7,0,0,0-3-3.31,12.51,12.51,0,0,0-4.17-1.5v-3h20.83v3.24a14.86,14.86,0,0,0-3.33.57q-1.95.54-1.95,1.23a3.51,3.51,0,0,0,.21.92c.14.43.3.88.49,1.34q1.76,4.58,5.35,13.2t5.58,13.8q2.08-5,4.33-10.24t5-12.5c.21-.59.52-1.4.92-2.43a7.4,7.4,0,0,0,.61-2.66c0-.8-.71-1.55-2.11-2.24a12.48,12.48,0,0,0-4-1.27v-3h16.94v2.87a11.17,11.17,0,0,0-3.65,1.59,8.32,8.32,0,0,0-3.38,3.86Q300.31,85.91,296,96.4t-6.5,15.45a84.2,84.2,0,0,1-5.2,10.11,30.18,30.18,0,0,1-4.46,5.71,13,13,0,0,1-3.87,2.62,10,10,0,0,1-3.58.67,8.61,8.61,0,0,1-5.67-1.71A5,5,0,0,1,264.69,125.32Z"/><path class="cls-1" d="M382.75,67.77a9.53,9.53,0,0,0-4.19,1.62,8.14,8.14,0,0,0-3.26,4.3q-2.31,6.8-4.37,12.88t-4.6,13.67c-.56,1.61-1.12,3.33-1.69,5.18s-1.09,3.63-1.55,5.32h-3.95l-12.3-33.62-12.33,33.62h-3.8q-3.48-10.26-6.78-20.37t-5.85-17.61a6.3,6.3,0,0,0-2.82-3.42,10.36,10.36,0,0,0-4-1.48v-3h20.35v3.24a15.38,15.38,0,0,0-3.31.5c-1.19.31-1.78.82-1.78,1.53a3.84,3.84,0,0,0,.16.79q.17.6.39,1.29Q328.53,77,330.39,83t4.83,15.54l11.64-32.8h4.48l11.88,32.34q2-6.19,4-12t3.45-10.88q.33-1.2.63-2.19a6.78,6.78,0,0,0,.3-2,1.94,1.94,0,0,0-.74-1.48A6.26,6.26,0,0,0,369,68.51a9.84,9.84,0,0,0-2-.56,10.94,10.94,0,0,0-1.59-.18v-3h17.34Z"/><path class="cls-1" d="M434.28,110.42H411.85v-3c.71-.07,1.49-.13,2.36-.19a8.46,8.46,0,0,0,2.12-.37,3.28,3.28,0,0,0,1.92-1.46,5.14,5.14,0,0,0,.63-2.7V79.19q0-4.84-2.3-7.49A7.14,7.14,0,0,0,411,69.06a12.8,12.8,0,0,0-4.47.77,17,17,0,0,0-3.69,1.87A11,11,0,0,0,400.42,74c-.55.77-1,1.42-1.3,1.95v26.23a4.87,4.87,0,0,0,.63,2.59,4.1,4.1,0,0,0,1.92,1.57,9.93,9.93,0,0,0,2.1.69,17.91,17.91,0,0,0,2.39.33v3H383.81v-3l2.21-.21a10.5,10.5,0,0,0,1.93-.35,3.43,3.43,0,0,0,1.93-1.46,5.06,5.06,0,0,0,.64-2.71V49.5a7.52,7.52,0,0,0-.72-3.15A5.58,5.58,0,0,0,387.93,44a6.56,6.56,0,0,0-2.94-.85c-1.4-.17-2.53-.29-3.4-.35v-3l16.89-1,.64.69V71.33h.19c1-1,1.95-1.92,2.78-2.71a22.08,22.08,0,0,1,3.29-2.47,17.27,17.27,0,0,1,4.15-1.85,18.11,18.11,0,0,1,5.35-.74q6.12,0,9.4,3.86t3.29,11.13v23.73a5.09,5.09,0,0,0,.59,2.61,3.74,3.74,0,0,0,1.93,1.55,15.28,15.28,0,0,0,1.93.63,16.23,16.23,0,0,0,2.26.3Z"/><path class="cls-1" d="M480.31,99.69a23.23,23.23,0,0,1-7.68,8.69,19.32,19.32,0,0,1-11.05,3.24,22.58,22.58,0,0,1-9.65-1.94,19,19,0,0,1-6.82-5.27,22.26,22.26,0,0,1-4-7.78,32.78,32.78,0,0,1-1.32-9.39,27.73,27.73,0,0,1,1.41-8.72,24.57,24.57,0,0,1,4.14-7.7,20.21,20.21,0,0,1,6.54-5.3,18.91,18.91,0,0,1,8.77-2,21.28,21.28,0,0,1,8.56,1.57A15.28,15.28,0,0,1,475,69.39a17,17,0,0,1,3.17,6.1,27,27,0,0,1,1,7.64v3.05H449a35.92,35.92,0,0,0,.86,8.16,19.37,19.37,0,0,0,2.71,6.44,12.85,12.85,0,0,0,4.71,4.25,14.66,14.66,0,0,0,6.94,1.55,12.75,12.75,0,0,0,7.1-1.93q3-1.94,5.76-7Zm-10.22-17.4a38.1,38.1,0,0,0-.44-5.53,17.5,17.5,0,0,0-1.41-4.94,9.33,9.33,0,0,0-2.92-3.45A7.86,7.86,0,0,0,460.56,67a9.9,9.9,0,0,0-8.07,4q-3.23,4-3.5,11.23Z"/><path class="cls-1" d="M526.11,99.69a23.23,23.23,0,0,1-7.68,8.69,19.33,19.33,0,0,1-11.06,3.24,22.54,22.54,0,0,1-9.64-1.94,19,19,0,0,1-6.83-5.27,22.6,22.6,0,0,1-4-7.78,32.78,32.78,0,0,1-1.32-9.39A27.46,27.46,0,0,1,487,78.52a24.57,24.57,0,0,1,4.14-7.7,20.11,20.11,0,0,1,6.54-5.3,18.91,18.91,0,0,1,8.77-2A21.28,21.28,0,0,1,515,65.08a15.28,15.28,0,0,1,5.78,4.31,17.2,17.2,0,0,1,3.17,6.1,27,27,0,0,1,1,7.64v3.05H494.79a35.92,35.92,0,0,0,.86,8.16,19.56,19.56,0,0,0,2.7,6.44,13,13,0,0,0,4.72,4.25,14.63,14.63,0,0,0,6.94,1.55,12.77,12.77,0,0,0,7.1-1.93q3-1.94,5.76-7Zm-10.23-17.4a38,38,0,0,0-.43-5.53A17.16,17.16,0,0,0,514,71.82a9.4,9.4,0,0,0-2.91-3.45A7.86,7.86,0,0,0,506.36,67a9.93,9.93,0,0,0-8.08,4q-3.21,4-3.49,11.23Z"/><path class="cls-1" d="M552.75,110.42H530.5v-3l2.27-.21a10.77,10.77,0,0,0,2-.35,3.42,3.42,0,0,0,1.94-1.46,5.06,5.06,0,0,0,.65-2.71V49.78a7,7,0,0,0-.72-3.13,6.1,6.1,0,0,0-1.87-2.29,9.57,9.57,0,0,0-3-1,27,27,0,0,0-3.57-.55v-3l17.17-1,.64.69v62.59a5.16,5.16,0,0,0,.61,2.66,3.78,3.78,0,0,0,1.94,1.6,10.41,10.41,0,0,0,2,.69,15,15,0,0,0,2.24.33Z"/><path class="cls-1" d="M315.9,135.61,323,120a.54.54,0,0,1,.39-.25h.23a.54.54,0,0,1,.4.25l7.09,15.64a.41.41,0,0,1-.4.6h-1.46a.55.55,0,0,1-.54-.35l-1.44-3.18h-7.6c-.46,1.07-.95,2.11-1.41,3.18a.58.58,0,0,1-.54.35H316.3A.41.41,0,0,1,315.9,135.61Zm10.53-4.93-2.86-6.36h-.11l-2.84,6.36Z"/><path class="cls-1" d="M349.74,120.39a.43.43,0,0,1,.41-.44h5.35a8.13,8.13,0,1,1,0,16.26h-5.35a.43.43,0,0,1-.41-.44ZM355.17,134a5.92,5.92,0,0,0,0-11.84h-3.06V134Z"/><path class="cls-1" d="M381,120.55a.41.41,0,0,1,.4-.6H383a.47.47,0,0,1,.4.25l5.11,11.5h.14l5.11-11.5a.44.44,0,0,1,.4-.25h1.65a.4.4,0,0,1,.39.6l-7.13,15.64a.44.44,0,0,1-.4.25h-.23a.46.46,0,0,1-.39-.25Z"/><path class="cls-1" d="M414.85,120.39a.45.45,0,0,1,.44-.44h1.53a.46.46,0,0,1,.44.44v15.38a.46.46,0,0,1-.44.44h-1.53a.45.45,0,0,1-.44-.44Z"/><path class="cls-1" d="M437,133.87c.21-.31.4-.66.6-1a.53.53,0,0,1,.79-.18,6.88,6.88,0,0,0,3.72,1.6c1.61,0,2.63-1,2.63-2.16,0-1.39-1.21-2.28-3.51-3.23S437,126.71,437,124c0-1.81,1.39-4.29,5.09-4.29a7.86,7.86,0,0,1,4.3,1.37.56.56,0,0,1,.14.79l-.58.88a.56.56,0,0,1-.82.23,7.18,7.18,0,0,0-3.13-1.16c-2,0-2.63,1.23-2.63,2.09,0,1.33,1,2.14,2.95,2.93,2.7,1.09,5,2.37,5,5.2,0,2.42-2.16,4.39-5.18,4.39a7.52,7.52,0,0,1-5-1.83C436.92,134.42,436.76,134.26,437,133.87Z"/><path class="cls-1" d="M473.94,119.72a8.36,8.36,0,1,1-8.35,8.38A8.35,8.35,0,0,1,473.94,119.72Zm0,14.4a6,6,0,1,0-6-6A6,6,0,0,0,473.94,134.12Z"/><path class="cls-1" d="M501.89,120.39a.44.44,0,0,1,.44-.44h6.32a5,5,0,0,1,5.07,5,5.17,5.17,0,0,1-3.44,4.72l3.18,5.9a.44.44,0,0,1-.39.67h-1.82a.42.42,0,0,1-.37-.21l-3.09-6.15h-3.51v5.92a.46.46,0,0,1-.44.44h-1.51a.44.44,0,0,1-.44-.44Zm6.57,7.46A2.89,2.89,0,0,0,511.3,125a2.85,2.85,0,0,0-2.84-2.77h-4.13v5.65Z"/><path class="cls-1" d="M536.79,128.38l-5.44-7.76a.43.43,0,0,1,.38-.67h1.72a.45.45,0,0,1,.37.21l4.2,5.92,4.21-5.92a.48.48,0,0,1,.37-.21h1.74a.43.43,0,0,1,.37.67l-5.5,7.74v7.41a.46.46,0,0,1-.44.44h-1.54a.44.44,0,0,1-.44-.44Z"/><path class="cls-2" d="M113.7,146.74a55.86,55.86,0,0,1-24,10.08,6,6,0,0,1-3.37-.64C62.7,144.25,47.07,115,50.1,87.57,56.78,123.06,77.7,142.56,113.7,146.74Z"/><path class="cls-2" d="M43.64,18.94c6.06-4.76,12.78-7.39,19.8-9.52,3.89-1.18,7.1-.55,10.57,1.63,22.55,14.15,35.83,40.22,33.22,66.8C100.26,42.33,79.43,22.8,43.64,18.94Z"/><path class="cls-1" d="M142.53,48.24a47.62,47.62,0,0,1,10.27,24c.18,1.39-.76,3.07-1.54,4.41a70.58,70.58,0,0,1-67.9,34.5c16-2.15,29.89-8.54,41-20.35S141.26,64.65,142.53,48.24Z"/><path class="cls-1" d="M14.74,118.1a55.53,55.53,0,0,1-10.21-24,6.34,6.34,0,0,1,.68-3.8A71,71,0,0,1,69.76,53.94a25.74,25.74,0,0,1,3.16.48C38,61.14,18.7,82.11,14.74,118.1Z"/><path class="cls-2" d="M75.52,158.46c-6.24-1.7-12.49-3.35-18.71-5.14-.79-.23-1.45-1.14-2-1.86-16.57-20.65-18.41-54.88-4.17-77.3a19.36,19.36,0,0,1,1.55-1.78c-10.78,34-3,62,23.58,84.56Z"/><path class="cls-2" d="M106.46,91.12c4.17-15.25,5.13-30.39.47-45.63S93.39,18,80.81,8.31L81.42,7c6.36,1.73,12.72,3.42,19,5.25.79.23,1.45,1.15,2,1.86,16.09,19.82,18.37,53.45,5.12,75.51A13.84,13.84,0,0,1,106.46,91.12Z"/><path class="cls-1" d="M87.72,55.21c-33.17-9.47-61.1-1.81-83.39,25-1.9-7.56,2.6-19.7,9.09-23.66,23.89-14.59,48.26-15.19,73-2.18C86.87,54.59,87.28,54.92,87.72,55.21Z"/><path class="cls-1" d="M154.48,85.66c-1.65,6.16-3.27,12.32-5,18.45a4.68,4.68,0,0,1-1.68,2.16c-22.35,17.23-55.13,19-78.85,3.32,15.21,4.89,30.54,6.34,46,1.8A71.6,71.6,0,0,0,153,85Z"/><path class="cls-1" d="M102.9,100.68c23-19.9,28.5-43.76,15.91-72.15A48.88,48.88,0,0,1,135,39a4.6,4.6,0,0,1,.91,2.54c3.77,23.3-11.07,50.22-32.66,59.27C103.16,100.88,103,100.74,102.9,100.68Z"/><path class="cls-2" d="M60,106.09c20.34,23.79,44.17,29.34,72.82,17-2.72,6.42-5.74,12.36-10.92,15.88-3,2-8,1.67-12.09,1.35-21.8-1.7-38.14-12.13-48.66-31.42C60.82,108.25,60.61,107.54,60,106.09Z"/><path class="cls-1" d="M37.7,137.59c-4.89-3.44-9.82-6.83-14.62-10.38a5.21,5.21,0,0,1-1.62-3C17.15,101.87,32.59,73.42,53.51,65c.09,0,.24.08.7.24-10.8,8.57-18,19.28-21,32.69-3.06,13.56-.87,26.33,5.4,38.59C38.29,136.89,38,137.24,37.7,137.59Z"/><path class="cls-2" d="M96.83,59C79.73,36.49,50.45,29.49,24.32,42.76a49.37,49.37,0,0,1,11-16.55,4.27,4.27,0,0,1,2.23-.7c24-3.27,49.55,10.85,59.36,32.73C97,58.44,96.86,58.73,96.83,59Z"/></svg>